<svg id="svg" version="1.1" xmlns="http://www.w3.org/2000/svg" xmlns:xlink="http://www.w3.org/1999/xlink" width="400" height="400" viewBox="0, 0, 400,400"><g id="svgg"><path id="path0" d="M35.062 35.131 C 33.933 36.379,34.064 76.372,35.200 77.400 C 36.418 78.502,37.600 77.297,37.600 74.953 L 37.600 73.229 55.415 55.415 L 73.229 37.600 74.953 37.600 C 77.297 37.600,78.502 36.418,77.400 35.200 C 76.318 34.004,36.141 33.939,35.062 35.131 M106.896 35.260 C 105.213 37.340,104.792 37.600,103.109 37.600 C 101.646 37.600,101.220 37.816,99.955 39.200 C 98.686 40.588,98.266 40.800,96.787 40.800 C 95.139 40.800,94.931 40.955,90.592 45.400 C 86.188 49.911,86.067 50.000,84.313 50.000 C 81.633 50.000,80.687 51.163,82.215 52.579 C 82.821 53.141,83.432 53.600,83.572 53.600 C 83.713 53.600,84.125 54.103,84.488 54.719 C 84.852 55.334,85.608 56.083,86.168 56.383 C 86.728 56.683,87.296 57.272,87.429 57.692 C 87.562 58.112,88.213 58.785,88.876 59.188 C 89.538 59.590,90.419 60.478,90.834 61.160 L 91.588 62.400 210.732 62.400 C 347.842 62.400,333.429 62.887,328.743 58.412 C 325.474 55.290,325.779 55.588,324.438 54.200 C 323.801 53.540,323.077 52.820,322.831 52.600 C 322.584 52.380,321.967 51.750,321.459 51.200 C 320.952 50.650,320.191 49.903,319.768 49.540 C 319.346 49.178,318.609 48.413,318.130 47.840 C 317.443 47.018,316.902 46.800,315.554 46.800 C 313.953 46.800,313.668 46.614,310.962 43.800 C 308.256 40.987,307.970 40.800,306.371 40.800 C 304.761 40.800,304.493 40.620,301.600 37.600 L 298.535 34.400 203.063 34.400 L 107.592 34.400 106.896 35.260 M328.880 34.880 C 328.050 35.710,328.355 36.756,329.617 37.409 C 330.287 37.755,331.022 38.450,331.251 38.953 C 331.481 39.456,332.156 40.156,332.753 40.509 C 333.350 40.861,334.074 41.591,334.363 42.131 C 334.652 42.670,335.330 43.348,335.869 43.637 C 336.409 43.926,337.140 44.652,337.493 45.250 C 337.846 45.848,338.566 46.568,339.093 46.850 C 339.620 47.132,340.339 47.850,340.691 48.447 C 341.044 49.044,341.744 49.719,342.247 49.949 C 342.750 50.178,343.427 50.878,343.751 51.505 C 344.075 52.131,344.795 52.851,345.351 53.105 C 345.907 53.358,346.627 54.078,346.951 54.705 C 347.275 55.331,348.006 56.057,348.576 56.316 C 349.146 56.576,349.804 57.211,350.040 57.728 C 350.275 58.245,350.956 58.956,351.553 59.309 C 352.150 59.661,352.868 60.380,353.150 60.907 C 353.432 61.434,354.152 62.154,354.750 62.507 C 355.348 62.860,356.068 63.580,356.350 64.107 C 356.632 64.634,357.352 65.354,357.950 65.707 C 358.548 66.060,359.283 66.808,359.583 67.368 C 359.883 67.928,360.472 68.496,360.892 68.629 C 361.312 68.762,361.985 69.413,362.388 70.076 C 362.790 70.738,363.678 71.619,364.360 72.034 C 365.473 72.711,365.600 72.987,365.600 74.732 C 365.600 77.298,366.728 78.551,368.000 77.400 C 369.196 76.318,369.261 36.141,368.069 35.062 C 367.124 34.207,329.727 34.033,328.880 34.880 M344.262 75.931 C 343.649 76.609,343.600 85.472,343.600 195.351 L 343.600 314.038 344.658 315.019 C 345.241 315.559,345.832 316.000,345.972 316.000 C 346.113 316.000,346.525 316.503,346.888 317.119 C 347.252 317.734,347.980 318.468,348.507 318.750 C 349.034 319.032,349.775 319.789,350.155 320.431 C 351.048 321.943,352.207 321.933,352.996 320.407 C 353.336 319.750,354.129 318.947,354.758 318.622 C 356.084 317.936,356.398 317.297,356.406 315.267 C 356.413 313.575,356.606 313.232,358.070 312.301 C 358.658 311.927,359.251 311.270,359.387 310.840 C 359.524 310.410,360.257 309.691,361.018 309.243 C 362.282 308.496,362.400 308.267,362.400 306.546 C 362.400 304.717,362.488 304.581,365.600 301.600 L 368.800 298.535 368.800 201.600 L 368.800 104.665 365.600 101.600 C 362.580 98.707,362.400 98.439,362.400 96.829 C 362.400 95.230,362.213 94.944,359.400 92.238 C 356.592 89.538,356.400 89.244,356.400 87.657 C 356.400 86.096,355.041 84.000,354.028 84.000 C 353.887 84.000,353.475 83.497,353.112 82.881 C 352.748 82.266,352.020 81.532,351.493 81.250 C 350.966 80.968,350.246 80.248,349.893 79.650 C 349.540 79.052,348.834 78.339,348.324 78.066 C 347.815 77.794,347.092 77.037,346.717 76.385 C 345.936 75.024,345.206 74.889,344.262 75.931 M75.689 78.223 C 74.505 79.052,74.300 89.171,75.449 90.084 C 75.805 90.368,76.615 91.140,77.248 91.800 C 77.880 92.460,78.562 93.151,78.763 93.335 C 78.965 93.520,79.575 94.125,80.119 94.681 C 80.664 95.236,81.404 95.985,81.764 96.345 C 82.124 96.705,82.868 97.450,83.418 98.000 C 83.968 98.550,84.664 99.245,84.964 99.545 C 85.264 99.845,85.964 100.536,86.519 101.081 C 87.075 101.625,87.680 102.235,87.865 102.437 C 88.049 102.638,88.740 103.324,89.400 103.962 C 90.060 104.599,90.780 105.303,91.000 105.525 C 91.518 106.048,93.952 108.482,94.475 109.000 C 94.697 109.220,95.401 109.940,96.038 110.600 C 96.676 111.260,97.362 111.951,97.563 112.135 C 97.765 112.320,98.375 112.925,98.919 113.481 C 99.464 114.036,100.179 114.761,100.509 115.091 C 100.839 115.421,101.559 116.141,102.109 116.691 C 102.659 117.241,103.379 117.961,103.709 118.291 C 104.039 118.621,104.793 119.365,105.384 119.945 C 105.975 120.525,106.580 121.136,106.729 121.301 C 106.878 121.467,107.540 122.124,108.200 122.762 C 109.701 124.211,110.189 124.699,111.638 126.200 C 112.276 126.860,112.991 127.580,113.228 127.800 C 113.465 128.020,114.075 128.625,114.584 129.145 C 115.093 129.665,115.779 130.361,116.109 130.691 C 116.439 131.021,117.159 131.741,117.709 132.291 C 118.259 132.841,118.955 133.536,119.255 133.836 C 119.555 134.136,120.279 134.852,120.865 135.426 C 121.450 136.001,122.080 136.635,122.265 136.837 C 122.449 137.038,123.140 137.724,123.800 138.362 C 125.301 139.811,125.789 140.299,127.238 141.800 C 127.876 142.460,128.562 143.151,128.763 143.335 C 129.447 143.963,131.107 145.688,131.755 146.445 C 133.036 147.943,135.980 147.489,137.881 145.500 C 138.774 144.565,139.691 143.620,139.917 143.400 C 140.144 143.180,140.865 142.460,141.520 141.800 C 142.175 141.140,143.001 140.368,143.355 140.084 C 143.792 139.735,144.000 138.929,144.000 137.590 L 144.000 135.611 138.300 129.997 C 135.165 126.909,132.464 124.252,132.299 124.091 C 132.133 123.931,131.476 123.260,130.838 122.600 C 129.389 121.099,128.901 120.611,127.400 119.162 C 126.740 118.524,126.045 117.842,125.856 117.645 C 125.666 117.449,122.902 114.678,119.712 111.488 C 116.522 108.298,113.737 105.503,113.523 105.277 C 113.021 104.743,110.840 102.563,110.379 102.132 C 109.914 101.699,98.409 90.193,97.991 89.744 C 97.586 89.309,95.132 86.854,94.600 86.352 C 94.380 86.144,92.349 84.090,90.086 81.787 L 85.972 77.600 81.275 77.600 C 77.671 77.600,76.371 77.745,75.689 78.223 M110.089 78.223 C 108.523 79.320,108.768 79.589,137.200 108.006 L 165.200 135.990 165.200 142.201 L 165.200 148.412 158.406 155.206 L 151.612 162.000 148.388 162.000 C 144.995 162.000,144.931 162.029,142.884 164.562 C 142.463 165.083,141.476 165.200,137.523 165.200 L 132.677 165.200 131.200 163.600 C 129.880 162.170,129.523 162.000,127.843 162.000 C 126.181 162.000,125.884 161.863,125.286 160.821 C 124.914 160.172,124.219 159.464,123.742 159.247 C 123.266 159.029,122.559 158.315,122.172 157.660 C 121.785 157.004,121.056 156.281,120.553 156.051 C 120.050 155.822,119.373 155.122,119.049 154.495 C 118.725 153.869,117.994 153.143,117.424 152.884 C 116.854 152.624,116.176 151.946,115.916 151.376 C 115.657 150.806,114.931 150.075,114.305 149.751 C 113.678 149.427,112.978 148.750,112.749 148.247 C 112.519 147.744,111.796 147.015,111.140 146.628 C 110.485 146.241,109.771 145.534,109.553 145.058 C 109.336 144.581,108.628 143.886,107.979 143.514 C 107.330 143.142,106.600 142.399,106.356 141.863 C 106.112 141.327,105.499 140.700,104.994 140.470 C 104.489 140.240,103.759 139.515,103.372 138.860 C 102.985 138.204,102.245 137.475,101.728 137.240 C 101.211 137.004,100.576 136.346,100.316 135.776 C 100.057 135.206,99.331 134.475,98.705 134.151 C 98.078 133.827,97.358 133.107,97.105 132.551 C 96.851 131.995,96.131 131.275,95.505 130.951 C 94.878 130.627,94.178 129.950,93.949 129.447 C 93.719 128.944,92.996 128.215,92.340 127.828 C 91.685 127.441,90.960 126.711,90.730 126.206 C 90.500 125.701,89.899 125.100,89.394 124.870 C 88.889 124.640,88.159 123.915,87.772 123.260 C 87.385 122.604,86.645 121.875,86.128 121.640 C 85.611 121.404,84.976 120.746,84.716 120.176 C 84.457 119.606,83.731 118.875,83.105 118.551 C 82.478 118.227,81.758 117.507,81.505 116.951 C 81.251 116.395,80.531 115.675,79.905 115.351 C 79.278 115.027,78.580 114.355,78.354 113.859 C 77.696 112.414,76.653 111.948,75.650 112.650 L 74.800 113.245 74.800 221.761 C 74.800 326.381,74.826 330.300,75.531 330.938 C 76.766 332.055,292.362 331.947,293.374 330.829 C 294.281 329.827,293.924 328.764,292.375 327.849 C 291.700 327.450,290.960 326.711,290.730 326.206 C 290.500 325.701,289.899 325.100,289.394 324.870 C 288.889 324.640,288.159 323.915,287.772 323.260 C 287.385 322.604,286.656 321.881,286.153 321.651 C 285.650 321.422,284.973 320.722,284.649 320.095 C 284.325 319.469,283.605 318.749,283.049 318.495 C 282.493 318.242,281.773 317.522,281.449 316.895 C 281.125 316.269,280.394 315.543,279.824 315.284 C 279.254 315.024,278.596 314.389,278.360 313.872 C 278.125 313.355,277.396 312.615,276.740 312.228 C 276.085 311.841,275.360 311.111,275.130 310.606 C 274.900 310.101,274.299 309.500,273.794 309.270 C 273.289 309.040,272.559 308.315,272.172 307.660 C 271.785 307.004,271.056 306.281,270.553 306.051 C 270.050 305.822,269.373 305.122,269.049 304.495 C 268.725 303.869,268.005 303.149,267.449 302.895 C 266.893 302.642,266.173 301.922,265.849 301.295 C 265.525 300.669,264.794 299.943,264.224 299.684 C 263.654 299.424,262.996 298.789,262.760 298.272 C 262.525 297.755,261.796 297.015,261.140 296.628 C 260.485 296.241,259.771 295.534,259.553 295.058 C 259.336 294.581,258.628 293.886,257.979 293.514 C 257.330 293.142,256.600 292.399,256.356 291.863 C 256.112 291.327,255.499 290.700,254.994 290.470 C 254.489 290.240,253.759 289.515,253.372 288.860 C 252.985 288.204,252.245 287.475,251.728 287.240 C 251.211 287.004,250.576 286.346,250.316 285.776 C 250.057 285.206,249.331 284.475,248.705 284.151 C 248.078 283.827,247.358 283.107,247.105 282.551 C 246.851 281.995,246.131 281.275,245.505 280.951 C 244.878 280.627,244.178 279.950,243.949 279.447 C 243.719 278.944,242.996 278.215,242.340 277.828 C 241.685 277.441,240.960 276.711,240.730 276.206 C 240.500 275.701,239.899 275.100,239.394 274.870 C 238.889 274.640,238.159 273.915,237.772 273.260 C 237.385 272.604,236.645 271.875,236.128 271.640 C 235.611 271.404,234.976 270.746,234.716 270.176 C 234.457 269.606,233.731 268.875,233.105 268.551 C 232.478 268.227,231.758 267.507,231.505 266.951 C 231.251 266.395,230.531 265.675,229.905 265.351 C 229.278 265.027,228.578 264.350,228.349 263.847 C 228.119 263.344,227.396 262.615,226.740 262.228 C 226.085 261.841,225.360 261.111,225.130 260.606 C 224.900 260.101,224.299 259.500,223.794 259.270 C 223.289 259.040,222.573 258.339,222.203 257.713 C 221.833 257.087,221.006 256.274,220.365 255.906 C 217.676 254.363,218.505 252.216,223.800 247.008 C 228.286 242.597,228.400 242.441,228.400 240.722 C 228.400 238.088,230.208 236.930,231.246 238.900 C 231.849 240.046,232.370 240.386,233.528 240.394 C 234.898 240.403,234.523 238.815,232.915 237.806 C 230.164 236.079,231.445 234.800,235.926 234.800 L 239.292 234.800 240.808 233.142 C 242.735 231.034,243.600 231.225,243.600 233.761 C 243.600 237.130,244.692 238.467,246.138 236.869 C 247.546 235.313,246.656 231.200,244.911 231.200 C 244.131 231.200,243.967 229.899,244.652 229.142 C 245.130 228.615,245.882 228.400,247.253 228.400 C 248.925 228.400,249.272 228.254,249.863 227.300 C 252.591 222.895,249.620 220.409,290.396 261.200 C 310.188 281.000,326.539 297.200,326.729 297.200 C 328.490 297.200,328.400 303.129,328.394 187.569 C 328.391 128.076,328.256 79.202,328.094 78.960 C 327.184 77.597,327.430 77.600,218.515 77.600 C 121.833 77.600,110.888 77.663,110.089 78.223 M86.394 80.400 C 86.535 81.014,87.159 81.669,88.012 82.097 C 88.795 82.491,89.491 83.188,89.608 83.697 C 89.725 84.202,90.381 84.865,91.095 85.200 C 91.826 85.543,92.544 86.278,92.771 86.915 C 93.006 87.574,93.626 88.194,94.285 88.429 C 94.922 88.656,95.657 89.374,96.000 90.105 C 96.335 90.819,96.998 91.475,97.503 91.592 C 98.012 91.709,98.709 92.405,99.103 93.188 C 99.531 94.042,100.185 94.665,100.800 94.805 C 101.415 94.945,101.847 95.357,101.922 95.875 C 102.067 96.872,103.089 97.860,104.182 98.061 C 104.625 98.142,105.064 98.637,105.194 99.202 C 105.334 99.814,105.961 100.470,106.812 100.897 C 107.595 101.291,108.291 101.988,108.408 102.497 C 108.525 103.002,109.181 103.665,109.895 104.000 C 110.626 104.343,111.344 105.078,111.571 105.715 C 111.806 106.374,112.426 106.994,113.085 107.229 C 113.722 107.456,114.457 108.174,114.800 108.905 C 115.135 109.619,115.798 110.275,116.303 110.392 C 116.812 110.509,117.509 111.205,117.903 111.988 C 118.326 112.831,118.987 113.466,119.585 113.603 C 120.207 113.746,120.654 114.193,120.797 114.815 C 120.934 115.413,121.569 116.074,122.412 116.497 C 123.195 116.891,123.891 117.588,124.008 118.097 C 124.125 118.602,124.781 119.265,125.495 119.600 C 126.226 119.943,126.944 120.678,127.171 121.315 C 127.406 121.974,128.026 122.594,128.685 122.829 C 129.322 123.056,130.057 123.774,130.400 124.505 C 130.735 125.219,131.398 125.875,131.903 125.992 C 132.412 126.109,133.109 126.805,133.503 127.588 C 133.926 128.431,134.587 129.066,135.185 129.203 C 135.807 129.346,136.254 129.793,136.397 130.415 C 136.534 131.013,137.169 131.674,138.012 132.097 C 138.795 132.491,139.491 133.188,139.608 133.697 C 139.725 134.203,140.380 134.864,141.100 135.200 C 143.006 136.092,143.073 139.365,141.192 139.742 C 140.247 139.931,139.931 140.247,139.741 141.193 C 139.554 142.128,139.215 142.476,138.250 142.721 C 137.311 142.959,136.905 143.358,136.617 144.319 C 136.054 146.204,132.639 146.296,132.267 144.437 C 132.091 143.556,131.702 143.164,130.664 142.821 C 129.625 142.478,129.237 142.087,129.060 141.199 C 128.880 140.299,128.528 139.952,127.533 139.695 C 126.529 139.434,126.166 139.071,125.905 138.067 C 125.646 137.066,125.302 136.720,124.384 136.537 C 123.474 136.355,123.123 136.008,122.879 135.050 C 122.643 134.122,122.241 133.704,121.318 133.428 C 120.423 133.160,119.977 132.715,119.726 131.839 C 119.475 130.966,119.034 130.525,118.161 130.274 C 117.285 130.023,116.840 129.577,116.572 128.682 C 116.296 127.759,115.878 127.357,114.950 127.121 C 113.992 126.877,113.645 126.526,113.463 125.616 C 113.280 124.698,112.934 124.354,111.933 124.095 C 110.929 123.834,110.566 123.471,110.305 122.467 C 110.048 121.472,109.701 121.120,108.801 120.940 C 107.913 120.763,107.522 120.375,107.179 119.336 C 106.843 118.317,106.440 117.908,105.609 117.742 C 104.788 117.578,104.398 117.188,104.135 116.271 C 103.872 115.356,103.445 114.928,102.533 114.667 C 101.623 114.406,101.194 113.977,100.933 113.067 C 100.672 112.155,100.244 111.728,99.329 111.465 C 98.412 111.202,98.022 110.812,97.858 109.991 C 97.692 109.160,97.283 108.757,96.264 108.421 C 95.216 108.075,94.838 107.689,94.655 106.776 C 94.470 105.852,94.148 105.530,93.224 105.345 C 92.311 105.162,91.925 104.784,91.579 103.736 C 91.243 102.717,90.840 102.308,90.009 102.142 C 89.188 101.978,88.798 101.588,88.535 100.671 C 88.272 99.756,87.845 99.328,86.933 99.067 C 86.023 98.806,85.594 98.377,85.333 97.467 C 85.072 96.555,84.644 96.128,83.729 95.865 C 82.812 95.602,82.422 95.212,82.258 94.391 C 82.092 93.560,81.683 93.157,80.664 92.821 C 79.625 92.478,79.237 92.087,79.060 91.199 C 78.879 90.294,78.529 89.953,77.513 89.690 L 76.200 89.351 76.086 84.800 C 75.934 78.696,75.501 79.155,81.275 79.288 C 86.125 79.399,86.167 79.408,86.394 80.400 M326.800 187.424 C 326.800 259.471,326.666 295.565,326.400 295.400 C 326.180 295.264,326.000 294.839,326.000 294.456 C 326.000 293.557,325.233 292.800,324.323 292.800 C 323.887 292.800,323.331 292.213,322.902 291.300 C 322.433 290.302,321.885 289.756,321.265 289.668 C 320.645 289.580,320.141 289.079,319.764 288.175 C 319.393 287.287,318.834 286.723,318.158 286.554 C 317.488 286.386,316.974 285.872,316.707 285.104 C 316.442 284.345,315.821 283.717,314.993 283.371 C 314.176 283.030,313.600 282.453,313.440 281.817 C 313.277 281.167,312.699 280.601,311.825 280.236 C 310.921 279.859,310.420 279.355,310.332 278.735 C 310.244 278.115,309.698 277.567,308.700 277.098 C 307.787 276.669,307.200 276.113,307.200 275.677 C 307.200 274.751,306.438 274.000,305.500 274.000 C 305.032 274.000,304.545 273.486,304.177 272.607 C 303.794 271.690,303.241 271.125,302.558 270.954 C 301.888 270.786,301.374 270.272,301.107 269.504 C 300.842 268.745,300.221 268.117,299.393 267.771 C 298.561 267.424,298.000 266.854,297.833 266.188 C 297.662 265.509,297.100 264.950,296.214 264.580 C 295.332 264.211,294.812 263.697,294.729 263.108 C 294.645 262.518,294.078 261.958,293.100 261.498 C 292.187 261.069,291.600 260.513,291.600 260.077 C 291.600 259.683,291.384 259.144,291.120 258.880 C 290.856 258.616,290.317 258.400,289.923 258.400 C 289.487 258.400,288.931 257.813,288.502 256.900 C 288.033 255.903,287.485 255.356,286.866 255.268 C 286.250 255.181,285.793 254.727,285.514 253.925 C 285.242 253.145,284.629 252.521,283.793 252.171 C 282.961 251.824,282.400 251.254,282.233 250.588 C 282.063 249.912,281.502 249.351,280.633 248.988 C 279.779 248.631,279.202 248.062,279.040 247.417 C 278.875 246.761,278.296 246.200,277.393 245.823 C 276.514 245.455,276.000 244.968,276.000 244.500 C 276.000 243.562,275.249 242.800,274.323 242.800 C 273.887 242.800,273.331 242.213,272.902 241.300 C 272.433 240.302,271.885 239.756,271.265 239.668 C 270.645 239.580,270.141 239.079,269.764 238.175 C 269.393 237.287,268.834 236.723,268.158 236.554 C 267.488 236.386,266.974 235.872,266.707 235.104 C 266.442 234.345,265.821 233.717,264.993 233.371 C 264.176 233.030,263.600 232.453,263.440 231.817 C 263.277 231.167,262.699 230.601,261.825 230.236 C 260.921 229.859,260.420 229.355,260.332 228.735 C 260.244 228.115,259.698 227.567,258.700 227.098 C 257.753 226.653,257.200 226.118,257.200 225.646 C 257.200 223.395,250.237 223.260,249.200 225.491 C 248.665 226.642,248.418 226.784,246.926 226.791 C 244.565 226.804,243.223 227.419,242.767 228.698 C 242.544 229.322,241.820 230.060,241.095 230.400 C 240.316 230.766,239.729 231.390,239.592 232.000 C 239.374 232.967,239.236 233.007,235.383 233.200 C 230.894 233.425,230.562 233.551,230.209 235.159 C 230.018 236.027,229.666 236.367,228.772 236.546 C 227.374 236.825,226.800 238.017,226.800 240.639 C 226.800 241.991,226.630 242.478,226.100 242.641 C 224.695 243.076,224.197 243.500,224.068 244.375 C 223.984 244.942,223.453 245.469,222.611 245.821 C 221.750 246.181,221.139 246.798,220.864 247.587 C 220.632 248.254,220.162 248.800,219.821 248.800 C 218.393 248.800,217.600 250.288,217.600 252.967 C 217.600 256.235,217.782 256.666,219.388 257.196 C 220.375 257.522,220.765 257.925,220.940 258.801 C 221.120 259.701,221.472 260.048,222.467 260.305 C 223.471 260.566,223.834 260.929,224.095 261.933 C 224.354 262.934,224.698 263.280,225.616 263.463 C 226.526 263.645,226.877 263.992,227.121 264.950 C 227.357 265.878,227.759 266.296,228.682 266.572 C 229.577 266.840,230.023 267.285,230.274 268.161 C 230.525 269.034,230.966 269.475,231.839 269.726 C 232.715 269.977,233.160 270.423,233.428 271.318 C 233.704 272.241,234.122 272.643,235.050 272.879 C 236.008 273.123,236.355 273.474,236.537 274.384 C 236.720 275.302,237.066 275.646,238.067 275.905 C 239.071 276.166,239.434 276.529,239.695 277.533 C 239.952 278.528,240.299 278.880,241.199 279.060 C 242.087 279.237,242.478 279.625,242.821 280.664 C 243.157 281.683,243.560 282.092,244.391 282.258 C 245.212 282.422,245.602 282.812,245.865 283.729 C 246.128 284.644,246.555 285.072,247.467 285.333 C 248.377 285.594,248.806 286.023,249.067 286.933 C 249.328 287.845,249.756 288.272,250.671 288.535 C 251.588 288.798,251.978 289.188,252.142 290.009 C 252.308 290.840,252.717 291.243,253.736 291.579 C 254.784 291.925,255.162 292.311,255.345 293.224 C 255.530 294.148,255.852 294.470,256.776 294.655 C 257.689 294.838,258.075 295.216,258.421 296.264 C 258.757 297.283,259.160 297.692,259.991 297.858 C 260.812 298.022,261.202 298.412,261.465 299.329 C 261.728 300.244,262.155 300.672,263.067 300.933 C 263.977 301.194,264.406 301.623,264.667 302.533 C 264.928 303.445,265.356 303.872,266.271 304.135 C 267.188 304.398,267.578 304.788,267.742 305.609 C 267.908 306.440,268.317 306.843,269.336 307.179 C 270.375 307.522,270.763 307.913,270.940 308.801 C 271.120 309.701,271.472 310.048,272.467 310.305 C 273.471 310.566,273.834 310.929,274.095 311.933 C 274.354 312.934,274.698 313.280,275.616 313.463 C 276.526 313.645,276.877 313.992,277.121 314.950 C 277.357 315.878,277.759 316.296,278.682 316.572 C 279.577 316.840,280.023 317.285,280.274 318.161 C 280.525 319.034,280.966 319.475,281.839 319.726 C 282.715 319.977,283.160 320.423,283.428 321.318 C 283.704 322.241,284.122 322.643,285.050 322.879 C 286.008 323.123,286.355 323.474,286.537 324.384 C 286.720 325.302,287.066 325.646,288.067 325.905 C 289.071 326.166,289.434 326.529,289.695 327.533 C 289.954 328.533,290.298 328.880,291.215 329.063 C 291.867 329.193,292.400 329.458,292.400 329.651 C 292.400 329.851,246.053 329.958,184.300 329.901 L 76.200 329.800 76.099 222.021 C 76.037 155.310,76.141 114.099,76.374 113.866 C 76.607 113.633,76.879 114.002,77.094 114.846 C 77.357 115.882,77.730 116.287,78.682 116.572 C 79.577 116.840,80.023 117.285,80.274 118.161 C 80.525 119.034,80.966 119.475,81.839 119.726 C 82.715 119.977,83.160 120.423,83.428 121.318 C 83.704 122.241,84.122 122.643,85.050 122.879 C 86.008 123.123,86.355 123.474,86.537 124.384 C 86.720 125.302,87.066 125.646,88.067 125.905 C 89.071 126.166,89.434 126.529,89.695 127.533 C 89.952 128.528,90.299 128.880,91.199 129.060 C 92.087 129.237,92.478 129.625,92.821 130.664 C 93.157 131.683,93.560 132.092,94.391 132.258 C 95.212 132.422,95.602 132.812,95.865 133.729 C 96.128 134.644,96.555 135.072,97.467 135.333 C 98.377 135.594,98.806 136.023,99.067 136.933 C 99.328 137.845,99.756 138.272,100.671 138.535 C 101.588 138.798,101.978 139.188,102.142 140.009 C 102.308 140.840,102.717 141.243,103.736 141.579 C 104.784 141.925,105.162 142.311,105.345 143.224 C 105.530 144.148,105.852 144.470,106.776 144.655 C 107.689 144.838,108.075 145.216,108.421 146.264 C 108.757 147.283,109.160 147.692,109.991 147.858 C 110.812 148.022,111.202 148.412,111.465 149.329 C 111.728 150.244,112.155 150.672,113.067 150.933 C 113.977 151.194,114.406 151.623,114.667 152.533 C 114.928 153.445,115.356 153.872,116.271 154.135 C 117.188 154.398,117.578 154.788,117.742 155.609 C 117.908 156.440,118.317 156.843,119.336 157.179 C 120.375 157.522,120.763 157.913,120.940 158.801 C 121.120 159.700,121.472 160.048,122.463 160.305 C 123.414 160.551,123.833 160.940,124.059 161.785 C 124.470 163.322,124.998 163.587,127.668 163.594 C 129.863 163.600,129.945 163.639,130.201 164.803 C 130.591 166.579,131.396 166.800,137.485 166.800 C 143.458 166.800,144.621 166.469,144.873 164.696 C 144.992 163.858,145.218 163.794,148.400 163.700 C 153.061 163.562,153.498 163.418,154.177 161.793 C 154.557 160.885,155.028 160.400,155.531 160.400 C 156.408 160.400,157.048 159.749,157.257 158.643 C 157.336 158.226,157.670 157.760,158.000 157.606 C 159.852 156.742,160.212 156.436,160.332 155.625 C 160.416 155.058,160.947 154.531,161.789 154.179 C 162.650 153.819,163.261 153.202,163.536 152.413 C 163.768 151.746,164.238 151.200,164.579 151.200 C 166.516 151.200,166.800 150.049,166.800 142.200 C 166.800 134.351,166.516 133.200,164.579 133.200 C 164.238 133.200,163.768 132.654,163.536 131.987 C 163.261 131.198,162.650 130.581,161.789 130.221 C 160.918 129.857,160.419 129.349,160.332 128.735 C 160.244 128.115,159.698 127.567,158.700 127.098 C 157.787 126.669,157.200 126.113,157.200 125.677 C 157.200 124.751,156.438 124.000,155.500 124.000 C 155.032 124.000,154.545 123.486,154.177 122.607 C 153.800 121.704,153.239 121.125,152.583 120.960 C 151.938 120.798,151.369 120.221,151.012 119.367 C 150.649 118.498,150.088 117.937,149.412 117.767 C 148.746 117.600,148.176 117.039,147.829 116.207 C 147.479 115.371,146.855 114.758,146.075 114.486 C 145.273 114.207,144.819 113.750,144.732 113.134 C 144.644 112.515,144.097 111.967,143.100 111.498 C 142.187 111.069,141.600 110.513,141.600 110.077 C 141.600 109.683,141.384 109.144,141.120 108.880 C 140.856 108.616,140.317 108.400,139.923 108.400 C 139.487 108.400,138.931 107.813,138.502 106.900 C 138.042 105.922,137.482 105.355,136.892 105.271 C 136.303 105.188,135.789 104.668,135.420 103.786 C 135.044 102.887,134.493 102.338,133.787 102.161 C 133.088 101.985,132.579 101.485,132.307 100.704 C 132.042 99.945,131.421 99.317,130.593 98.971 C 129.776 98.630,129.200 98.053,129.040 97.417 C 128.875 96.761,128.296 96.200,127.393 95.823 C 126.514 95.455,126.000 94.968,126.000 94.500 C 126.000 93.562,125.249 92.800,124.323 92.800 C 123.887 92.800,123.331 92.213,122.902 91.300 C 122.433 90.302,121.885 89.756,121.265 89.668 C 120.645 89.580,120.141 89.079,119.764 88.175 C 119.399 87.301,118.833 86.723,118.183 86.560 C 117.538 86.398,116.969 85.821,116.612 84.967 C 116.249 84.098,115.688 83.537,115.012 83.367 C 114.346 83.200,113.776 82.639,113.429 81.807 C 113.081 80.974,112.512 80.414,111.843 80.247 C 107.998 79.282,116.336 79.200,218.800 79.200 L 326.800 79.200 326.800 187.424 M44.500 91.395 C 41.017 94.919,40.800 95.237,40.800 96.815 C 40.800 98.261,40.580 98.694,39.200 99.955 C 37.816 101.220,37.600 101.646,37.600 103.109 C 37.600 104.792,37.340 105.213,35.260 106.896 L 34.400 107.592 34.400 203.063 L 34.400 298.535 37.600 301.600 C 40.620 304.493,40.800 304.761,40.800 306.371 C 40.800 307.970,40.987 308.256,43.800 310.962 C 46.614 313.668,46.800 313.953,46.800 315.554 C 46.800 316.902,47.018 317.443,47.840 318.130 C 48.413 318.609,49.178 319.346,49.540 319.768 C 49.903 320.191,50.650 320.952,51.200 321.459 C 51.750 321.967,52.380 322.584,52.600 322.831 C 52.820 323.077,53.540 323.801,54.200 324.438 C 55.969 326.147,55.942 326.118,56.777 327.200 C 57.411 328.020,57.680 328.120,58.275 327.756 C 58.972 327.330,59.004 322.824,59.101 211.225 L 59.201 95.138 55.420 91.369 C 50.174 86.140,49.694 86.141,44.500 91.395 M147.227 144.750 C 146.553 146.009,148.120 147.178,149.187 146.212 C 150.129 145.359,149.646 144.000,148.400 144.000 C 147.975 144.000,147.448 144.337,147.227 144.750 M153.594 144.608 C 152.987 145.339,154.068 146.800,155.215 146.800 C 156.190 146.800,156.458 145.376,155.625 144.623 C 154.760 143.840,154.234 143.836,153.594 144.608 M156.667 147.067 C 156.165 147.569,156.400 148.676,157.152 149.357 C 157.901 150.034,159.200 149.448,159.200 148.433 C 159.200 147.545,157.244 146.490,156.667 147.067 M141.429 150.629 C 140.531 151.526,140.628 151.828,142.200 153.027 C 143.452 153.982,143.600 154.295,143.600 155.985 C 143.600 158.415,144.407 159.200,146.903 159.200 C 149.963 159.200,150.484 158.233,148.441 156.347 C 147.000 155.016,146.800 154.619,146.800 153.078 C 146.800 150.300,143.337 148.721,141.429 150.629 M241.172 238.234 C 240.458 239.094,241.155 240.161,242.540 240.327 C 243.512 240.443,243.600 240.335,243.600 239.027 C 243.600 237.428,242.216 236.976,241.172 238.234 M234.482 243.696 C 234.612 246.880,235.275 247.580,236.830 246.173 C 238.577 244.592,237.463 240.800,235.251 240.800 C 234.407 240.800,234.371 240.938,234.482 243.696 M243.890 241.577 C 243.683 242.369,244.673 243.600,245.517 243.600 C 246.312 243.600,246.921 242.027,246.379 241.374 C 245.675 240.527,244.132 240.652,243.890 241.577 M244.388 250.393 C 240.083 254.640,239.758 255.397,241.826 256.339 C 242.382 256.592,243.142 257.330,243.514 257.979 C 243.886 258.628,244.581 259.336,245.058 259.553 C 245.534 259.771,246.241 260.485,246.628 261.140 C 247.015 261.796,247.744 262.519,248.247 262.749 C 248.750 262.978,249.427 263.678,249.751 264.305 C 250.075 264.931,250.795 265.651,251.351 265.905 C 251.907 266.158,252.627 266.878,252.951 267.505 C 253.275 268.131,254.006 268.857,254.576 269.116 C 255.146 269.376,255.804 270.011,256.040 270.528 C 256.275 271.045,257.004 271.785,257.660 272.172 C 258.315 272.559,259.040 273.289,259.270 273.794 C 259.500 274.299,260.101 274.900,260.606 275.130 C 261.111 275.360,261.841 276.085,262.228 276.740 C 262.615 277.396,263.344 278.119,263.847 278.349 C 264.350 278.578,265.027 279.278,265.351 279.905 C 265.675 280.531,266.406 281.257,266.976 281.516 C 267.546 281.776,268.224 282.454,268.484 283.024 C 268.743 283.594,269.469 284.325,270.095 284.649 C 270.722 284.973,271.422 285.650,271.651 286.153 C 271.881 286.656,272.604 287.385,273.260 287.772 C 273.915 288.159,274.640 288.889,274.870 289.394 C 275.100 289.899,275.701 290.500,276.206 290.730 C 276.711 290.960,277.441 291.685,277.828 292.340 C 278.215 292.996,278.955 293.725,279.472 293.960 C 279.989 294.196,280.624 294.854,280.884 295.424 C 281.143 295.994,281.869 296.725,282.495 297.049 C 283.122 297.373,283.842 298.093,284.095 298.649 C 284.349 299.205,285.069 299.925,285.695 300.249 C 286.322 300.573,287.022 301.250,287.251 301.753 C 287.481 302.256,288.204 302.985,288.860 303.372 C 289.515 303.759,290.229 304.466,290.447 304.942 C 290.664 305.419,291.372 306.114,292.021 306.486 C 292.670 306.858,293.400 307.601,293.644 308.137 C 293.888 308.673,294.501 309.300,295.006 309.530 C 295.511 309.760,296.241 310.485,296.628 311.140 C 297.015 311.796,297.744 312.519,298.247 312.749 C 298.750 312.978,299.427 313.678,299.751 314.305 C 300.075 314.931,300.795 315.651,301.351 315.905 C 301.907 316.158,302.627 316.878,302.951 317.505 C 303.275 318.131,304.006 318.857,304.576 319.116 C 305.146 319.376,305.804 320.011,306.040 320.528 C 306.275 321.045,307.004 321.785,307.660 322.172 C 308.315 322.559,309.040 323.289,309.270 323.794 C 309.500 324.299,310.101 324.900,310.606 325.130 C 311.111 325.360,311.850 326.100,312.249 326.775 C 312.647 327.449,313.299 328.104,313.697 328.231 C 314.095 328.357,314.719 328.942,315.083 329.530 C 316.291 331.484,316.666 331.600,321.787 331.600 C 328.595 331.600,328.400 331.794,328.400 325.005 L 328.400 319.654 327.100 318.742 C 326.385 318.240,325.736 317.676,325.658 317.490 C 325.581 317.303,322.931 314.597,319.770 311.475 C 316.609 308.354,313.793 305.559,313.512 305.265 C 312.851 304.573,310.855 302.578,310.323 302.077 C 310.097 301.863,307.302 299.078,304.112 295.888 C 300.922 292.698,298.137 289.903,297.923 289.677 C 297.710 289.450,296.995 288.725,296.335 288.065 C 295.675 287.405,294.950 286.690,294.723 286.477 C 294.497 286.263,291.702 283.478,288.512 280.288 C 285.322 277.098,282.551 274.334,282.355 274.144 C 282.158 273.955,281.476 273.260,280.838 272.600 C 280.201 271.940,279.436 271.157,279.140 270.860 C 278.843 270.564,278.060 269.799,277.400 269.162 C 276.740 268.524,276.020 267.817,275.800 267.590 C 275.580 267.363,272.815 264.592,269.656 261.433 C 266.496 258.273,263.767 255.534,263.591 255.344 C 263.209 254.933,260.907 252.628,260.326 252.074 C 260.101 251.859,258.762 250.495,257.351 249.042 L 254.785 246.400 251.610 246.400 L 248.434 246.400 244.388 250.393 M229.100 247.222 C 228.048 247.850,228.257 249.070,229.546 249.832 C 230.176 250.204,230.996 251.024,231.368 251.654 C 232.814 254.102,234.499 252.777,234.321 249.334 L 234.200 247.000 232.000 246.903 C 230.790 246.849,229.485 246.993,229.100 247.222 M255.195 249.200 C 255.335 249.814,255.959 250.469,256.812 250.897 C 257.595 251.291,258.291 251.988,258.408 252.497 C 258.525 253.002,259.181 253.665,259.895 254.000 C 260.626 254.343,261.344 255.078,261.571 255.715 C 261.806 256.374,262.426 256.994,263.085 257.229 C 263.722 257.456,264.457 258.174,264.800 258.905 C 265.135 259.619,265.798 260.275,266.303 260.392 C 266.812 260.509,267.509 261.205,267.903 261.988 C 268.326 262.831,268.987 263.466,269.585 263.603 C 270.207 263.746,270.654 264.193,270.797 264.815 C 270.934 265.413,271.569 266.074,272.412 266.497 C 273.195 266.891,273.891 267.588,274.008 268.097 C 274.125 268.602,274.781 269.265,275.495 269.600 C 276.226 269.943,276.944 270.678,277.171 271.315 C 277.406 271.974,278.026 272.594,278.685 272.829 C 279.322 273.056,280.057 273.774,280.400 274.505 C 280.735 275.219,281.398 275.875,281.903 275.992 C 282.412 276.109,283.109 276.805,283.503 277.588 C 283.926 278.431,284.587 279.066,285.185 279.203 C 285.807 279.346,286.254 279.793,286.397 280.415 C 286.534 281.013,287.169 281.674,288.012 282.097 C 288.795 282.491,289.491 283.188,289.608 283.697 C 289.725 284.202,290.381 284.865,291.095 285.200 C 291.826 285.543,292.544 286.278,292.771 286.915 C 293.006 287.574,293.626 288.194,294.285 288.429 C 294.922 288.656,295.657 289.374,296.000 290.105 C 296.335 290.819,296.998 291.475,297.503 291.592 C 298.012 291.709,298.709 292.405,299.103 293.188 C 299.530 294.039,300.186 294.666,300.798 294.806 C 301.363 294.936,301.858 295.375,301.939 295.818 C 302.140 296.911,303.128 297.933,304.125 298.078 C 304.643 298.153,305.055 298.585,305.195 299.200 C 305.335 299.815,305.958 300.469,306.812 300.897 C 307.595 301.291,308.291 301.988,308.408 302.497 C 308.525 303.002,309.181 303.665,309.895 304.000 C 310.626 304.343,311.344 305.078,311.571 305.715 C 311.806 306.374,312.426 306.994,313.085 307.229 C 313.722 307.456,314.457 308.174,314.800 308.905 C 315.135 309.619,315.798 310.275,316.303 310.392 C 316.812 310.509,317.509 311.205,317.903 311.988 C 318.326 312.831,318.987 313.466,319.585 313.603 C 320.207 313.746,320.654 314.193,320.797 314.815 C 320.934 315.413,321.569 316.074,322.412 316.497 C 323.195 316.891,323.891 317.588,324.008 318.097 C 324.125 318.603,324.780 319.264,325.500 319.600 L 326.783 320.200 326.791 325.100 L 326.800 330.000 321.883 330.000 L 316.965 330.000 316.583 328.719 C 316.295 327.758,315.889 327.359,314.950 327.121 C 313.992 326.877,313.645 326.526,313.463 325.616 C 313.280 324.698,312.934 324.354,311.933 324.095 C 310.929 323.834,310.566 323.471,310.305 322.467 C 310.048 321.472,309.701 321.120,308.801 320.940 C 307.913 320.763,307.522 320.375,307.179 319.336 C 306.843 318.317,306.440 317.908,305.609 317.742 C 304.788 317.578,304.398 317.188,304.135 316.271 C 303.872 315.356,303.445 314.928,302.533 314.667 C 301.623 314.406,301.194 313.977,300.933 313.067 C 300.672 312.155,300.244 311.728,299.329 311.465 C 298.412 311.202,298.022 310.812,297.858 309.991 C 297.692 309.160,297.283 308.757,296.264 308.421 C 295.216 308.075,294.838 307.689,294.655 306.776 C 294.470 305.852,294.148 305.530,293.224 305.345 C 292.311 305.162,291.925 304.784,291.579 303.736 C 291.243 302.717,290.840 302.308,290.009 302.142 C 289.188 301.978,288.798 301.588,288.535 300.671 C 288.272 299.756,287.845 299.328,286.933 299.067 C 286.023 298.806,285.594 298.377,285.333 297.467 C 285.072 296.555,284.644 296.128,283.729 295.865 C 282.812 295.602,282.422 295.212,282.258 294.391 C 282.092 293.560,281.683 293.157,280.664 292.821 C 279.625 292.478,279.237 292.087,279.060 291.199 C 278.880 290.299,278.528 289.952,277.533 289.695 C 276.529 289.434,276.166 289.071,275.905 288.067 C 275.646 287.066,275.302 286.720,274.384 286.537 C 273.474 286.355,273.123 286.008,272.879 285.050 C 272.643 284.122,272.241 283.704,271.318 283.428 C 270.423 283.160,269.977 282.715,269.726 281.839 C 269.475 280.966,269.034 280.525,268.161 280.274 C 267.285 280.023,266.840 279.577,266.572 278.682 C 266.296 277.759,265.878 277.357,264.950 277.121 C 263.992 276.877,263.645 276.526,263.463 275.616 C 263.280 274.698,262.934 274.354,261.933 274.095 C 260.929 273.834,260.566 273.471,260.305 272.467 C 260.048 271.472,259.701 271.120,258.801 270.940 C 257.913 270.763,257.522 270.375,257.179 269.336 C 256.843 268.317,256.440 267.908,255.609 267.742 C 254.788 267.578,254.398 267.188,254.135 266.271 C 253.872 265.356,253.445 264.928,252.533 264.667 C 251.623 264.406,251.194 263.977,250.933 263.067 C 250.672 262.155,250.244 261.728,249.329 261.465 C 248.412 261.202,248.022 260.812,247.858 259.991 C 247.692 259.160,247.283 258.757,246.264 258.421 C 245.216 258.075,244.838 257.689,244.655 256.776 C 244.470 255.848,244.148 255.530,243.208 255.342 C 241.659 255.032,241.682 254.684,243.300 253.972 C 244.121 253.611,244.647 253.066,244.729 252.493 C 244.812 251.909,245.326 251.391,246.175 251.036 C 247.047 250.672,247.640 250.061,247.931 249.227 L 248.370 247.967 251.668 248.084 C 254.817 248.195,254.976 248.245,255.195 249.200 M34.880 328.880 C 33.974 329.786,34.214 367.308,35.131 368.138 C 36.324 369.217,73.167 369.141,74.148 368.058 C 74.964 367.155,74.682 366.257,73.397 365.672 C 72.870 365.431,72.173 364.722,71.849 364.095 C 71.525 363.469,70.794 362.743,70.224 362.484 C 69.654 362.224,68.991 361.579,68.750 361.050 C 68.509 360.521,67.870 359.852,67.331 359.563 C 66.791 359.274,66.066 358.559,65.720 357.973 C 65.375 357.388,64.612 356.625,64.027 356.280 C 63.441 355.934,62.732 355.220,62.450 354.693 C 62.168 354.166,61.448 353.446,60.850 353.093 C 60.252 352.740,59.526 352.009,59.237 351.469 C 58.948 350.930,58.291 350.296,57.775 350.062 C 57.260 349.827,56.573 349.122,56.249 348.495 C 55.925 347.869,55.205 347.149,54.649 346.895 C 54.093 346.642,53.373 345.922,53.049 345.295 C 52.725 344.669,51.994 343.943,51.424 343.684 C 50.854 343.424,50.196 342.789,49.960 342.272 C 49.725 341.755,49.044 341.044,48.447 340.691 C 47.850 340.339,47.132 339.620,46.850 339.093 C 46.568 338.566,45.848 337.846,45.250 337.493 C 44.652 337.140,43.926 336.409,43.637 335.869 C 43.348 335.330,42.670 334.652,42.131 334.363 C 41.591 334.074,40.861 333.350,40.509 332.753 C 40.156 332.156,39.456 331.481,38.953 331.251 C 38.450 331.022,37.755 330.287,37.409 329.617 C 36.756 328.355,35.710 328.050,34.880 328.880 M365.768 329.546 C 365.396 330.176,364.612 330.975,364.027 331.320 C 363.441 331.666,362.732 332.380,362.450 332.907 C 362.168 333.434,361.422 334.169,360.793 334.541 C 360.164 334.912,359.535 335.575,359.396 336.013 C 359.257 336.451,358.619 337.080,357.978 337.411 C 357.338 337.742,356.554 338.515,356.237 339.129 C 355.920 339.742,355.205 340.451,354.649 340.705 C 354.093 340.958,353.355 341.713,353.009 342.383 C 352.663 343.052,352.204 343.600,351.990 343.600 C 350.986 343.600,350.000 345.254,350.000 346.938 C 350.000 349.147,349.128 350.000,346.869 350.000 C 345.254 350.000,343.600 351.007,343.600 351.990 C 343.600 352.204,343.063 352.657,342.407 352.996 C 341.750 353.336,340.954 354.115,340.637 354.729 C 340.320 355.342,339.605 356.051,339.049 356.305 C 338.493 356.558,337.762 357.300,337.424 357.954 C 337.085 358.608,336.451 359.257,336.013 359.396 C 335.575 359.535,334.918 360.153,334.554 360.770 C 334.190 361.387,333.412 362.175,332.827 362.520 C 332.241 362.866,331.532 363.580,331.250 364.107 C 330.968 364.634,330.211 365.375,329.569 365.755 C 328.228 366.547,328.043 367.781,329.174 368.386 C 330.845 369.280,367.080 368.920,368.000 368.000 C 368.920 367.080,369.280 330.845,368.386 329.174 C 367.784 328.050,366.548 328.226,365.768 329.546 M79.100 347.232 C 78.047 347.845,78.257 349.070,79.546 349.832 C 80.176 350.204,80.975 350.988,81.320 351.573 C 81.666 352.159,82.411 352.885,82.975 353.186 C 83.539 353.488,84.000 353.858,84.000 354.009 C 84.000 355.038,86.083 356.400,87.657 356.400 C 89.244 356.400,89.538 356.592,92.238 359.400 C 94.944 362.213,95.230 362.400,96.829 362.400 C 98.439 362.400,98.707 362.580,101.600 365.600 L 104.665 368.800 201.600 368.800 L 298.535 368.800 301.600 365.600 C 304.581 362.488,304.717 362.400,306.546 362.400 C 308.267 362.400,308.496 362.282,309.243 361.018 C 309.691 360.257,310.410 359.524,310.840 359.387 C 311.270 359.251,311.927 358.658,312.301 358.070 C 313.249 356.579,313.568 356.413,315.500 356.406 C 316.668 356.402,317.454 356.146,318.010 355.590 L 318.820 354.780 314.829 350.790 L 310.839 346.800 195.320 346.812 C 117.596 346.820,79.571 346.958,79.100 347.232 " stroke="none" fill="#c4c4c4" fill-rule="evenodd"></path><path id="path1" d="M76.178 79.712 C 76.065 80.007,76.024 82.297,76.086 84.800 L 76.200 89.351 77.513 89.690 C 78.529 89.953,78.879 90.294,79.060 91.199 C 79.237 92.087,79.625 92.478,80.664 92.821 C 81.683 93.157,82.092 93.560,82.258 94.391 C 82.422 95.212,82.812 95.602,83.729 95.865 C 84.644 96.128,85.072 96.555,85.333 97.467 C 85.594 98.377,86.023 98.806,86.933 99.067 C 87.845 99.328,88.272 99.756,88.535 100.671 C 88.798 101.588,89.188 101.978,90.009 102.142 C 90.840 102.308,91.243 102.717,91.579 103.736 C 91.925 104.784,92.311 105.162,93.224 105.345 C 94.148 105.530,94.470 105.852,94.655 106.776 C 94.838 107.689,95.216 108.075,96.264 108.421 C 97.283 108.757,97.692 109.160,97.858 109.991 C 98.022 110.812,98.412 111.202,99.329 111.465 C 100.244 111.728,100.672 112.155,100.933 113.067 C 101.194 113.977,101.623 114.406,102.533 114.667 C 103.445 114.928,103.872 115.356,104.135 116.271 C 104.398 117.188,104.788 117.578,105.609 117.742 C 106.440 117.908,106.843 118.317,107.179 119.336 C 107.522 120.375,107.913 120.763,108.801 120.940 C 109.701 121.120,110.048 121.472,110.305 122.467 C 110.566 123.471,110.929 123.834,111.933 124.095 C 112.934 124.354,113.280 124.698,113.463 125.616 C 113.645 126.526,113.992 126.877,114.950 127.121 C 115.878 127.357,116.296 127.759,116.572 128.682 C 116.840 129.577,117.285 130.023,118.161 130.274 C 119.034 130.525,119.475 130.966,119.726 131.839 C 119.977 132.715,120.423 133.160,121.318 133.428 C 122.241 133.704,122.643 134.122,122.879 135.050 C 123.123 136.008,123.474 136.355,124.384 136.537 C 125.302 136.720,125.646 137.066,125.905 138.067 C 126.166 139.071,126.529 139.434,127.533 139.695 C 128.528 139.952,128.880 140.299,129.060 141.199 C 129.237 142.087,129.625 142.478,130.664 142.821 C 131.702 143.164,132.091 143.556,132.267 144.437 C 132.639 146.296,136.054 146.204,136.617 144.319 C 136.905 143.358,137.311 142.959,138.250 142.721 C 139.215 142.476,139.554 142.128,139.741 141.193 C 139.931 140.247,140.247 139.931,141.192 139.742 C 143.073 139.365,143.006 136.092,141.100 135.200 C 140.380 134.864,139.725 134.203,139.608 133.697 C 139.491 133.188,138.795 132.491,138.012 132.097 C 137.169 131.674,136.534 131.013,136.397 130.415 C 136.254 129.793,135.807 129.346,135.185 129.203 C 134.587 129.066,133.926 128.431,133.503 127.588 C 133.109 126.805,132.412 126.109,131.903 125.992 C 131.398 125.875,130.735 125.219,130.400 124.505 C 130.057 123.774,129.322 123.056,128.685 122.829 C 128.026 122.594,127.406 121.974,127.171 121.315 C 126.944 120.678,126.226 119.943,125.495 119.600 C 124.781 119.265,124.125 118.602,124.008 118.097 C 123.891 117.588,123.195 116.891,122.412 116.497 C 121.569 116.074,120.934 115.413,120.797 114.815 C 120.654 114.193,120.207 113.746,119.585 113.603 C 118.987 113.466,118.326 112.831,117.903 111.988 C 117.509 111.205,116.812 110.509,116.303 110.392 C 115.798 110.275,115.135 109.619,114.800 108.905 C 114.457 108.174,113.722 107.456,113.085 107.229 C 112.426 106.994,111.806 106.374,111.571 105.715 C 111.344 105.078,110.626 104.343,109.895 104.000 C 109.181 103.665,108.525 103.002,108.408 102.497 C 108.291 101.988,107.595 101.291,106.812 100.897 C 105.961 100.470,105.334 99.814,105.194 99.202 C 105.064 98.637,104.625 98.142,104.182 98.061 C 103.089 97.860,102.067 96.872,101.922 95.875 C 101.847 95.357,101.415 94.945,100.800 94.805 C 100.185 94.665,99.531 94.042,99.103 93.188 C 98.709 92.405,98.012 91.709,97.503 91.592 C 96.998 91.475,96.335 90.819,96.000 90.105 C 95.657 89.374,94.922 88.656,94.285 88.429 C 93.626 88.194,93.006 87.574,92.771 86.915 C 92.544 86.278,91.826 85.543,91.095 85.200 C 90.381 84.865,89.725 84.202,89.608 83.697 C 89.491 83.188,88.795 82.491,88.012 82.097 C 87.159 81.669,86.535 81.014,86.394 80.400 C 86.120 79.204,76.619 78.564,76.178 79.712 M110.800 79.592 C 110.800 79.808,111.269 80.103,111.843 80.247 C 112.512 80.414,113.081 80.974,113.429 81.807 C 113.776 82.639,114.346 83.200,115.012 83.367 C 115.688 83.537,116.249 84.098,116.612 84.967 C 116.969 85.821,117.538 86.398,118.183 86.560 C 118.833 86.723,119.399 87.301,119.764 88.175 C 120.141 89.079,120.645 89.580,121.265 89.668 C 121.885 89.756,122.433 90.302,122.902 91.300 C 123.331 92.213,123.887 92.800,124.323 92.800 C 125.249 92.800,126.000 93.562,126.000 94.500 C 126.000 94.968,126.514 95.455,127.393 95.823 C 128.296 96.200,128.875 96.761,129.040 97.417 C 129.200 98.053,129.776 98.630,130.593 98.971 C 131.421 99.317,132.042 99.945,132.307 100.704 C 132.579 101.485,133.088 101.985,133.787 102.161 C 134.493 102.338,135.044 102.887,135.420 103.786 C 135.789 104.668,136.303 105.188,136.892 105.271 C 137.482 105.355,138.042 105.922,138.502 106.900 C 138.931 107.813,139.487 108.400,139.923 108.400 C 140.317 108.400,140.856 108.616,141.120 108.880 C 141.384 109.144,141.600 109.683,141.600 110.077 C 141.600 110.513,142.187 111.069,143.100 111.498 C 144.097 111.967,144.644 112.515,144.732 113.134 C 144.819 113.750,145.273 114.207,146.075 114.486 C 146.855 114.758,147.479 115.371,147.829 116.207 C 148.176 117.039,148.746 117.600,149.412 117.767 C 150.088 117.937,150.649 118.498,151.012 119.367 C 151.369 120.221,151.938 120.798,152.583 120.960 C 153.239 121.125,153.800 121.704,154.177 122.607 C 154.545 123.486,155.032 124.000,155.500 124.000 C 156.438 124.000,157.200 124.751,157.200 125.677 C 157.200 126.113,157.787 126.669,158.700 127.098 C 159.698 127.567,160.244 128.115,160.332 128.735 C 160.419 129.349,160.918 129.857,161.789 130.221 C 162.650 130.581,163.261 131.198,163.536 131.987 C 163.768 132.654,164.238 133.200,164.579 133.200 C 166.516 133.200,166.800 134.351,166.800 142.200 C 166.800 150.049,166.516 151.200,164.579 151.200 C 164.238 151.200,163.768 151.746,163.536 152.413 C 163.261 153.202,162.650 153.819,161.789 154.179 C 160.947 154.531,160.416 155.058,160.332 155.625 C 160.212 156.436,159.852 156.742,158.000 157.606 C 157.670 157.760,157.336 158.226,157.257 158.643 C 157.048 159.749,156.408 160.400,155.531 160.400 C 155.028 160.400,154.557 160.885,154.177 161.793 C 153.498 163.418,153.061 163.562,148.400 163.700 C 145.218 163.794,144.992 163.858,144.873 164.696 C 144.621 166.469,143.458 166.800,137.485 166.800 C 131.396 166.800,130.591 166.579,130.201 164.803 C 129.945 163.639,129.863 163.600,127.668 163.594 C 124.998 163.587,124.470 163.322,124.059 161.785 C 123.833 160.940,123.414 160.551,122.463 160.305 C 121.472 160.048,121.120 159.700,120.940 158.801 C 120.763 157.913,120.375 157.522,119.336 157.179 C 118.317 156.843,117.908 156.440,117.742 155.609 C 117.578 154.788,117.188 154.398,116.271 154.135 C 115.356 153.872,114.928 153.445,114.667 152.533 C 114.406 151.623,113.977 151.194,113.067 150.933 C 112.155 150.672,111.728 150.244,111.465 149.329 C 111.202 148.412,110.812 148.022,109.991 147.858 C 109.160 147.692,108.757 147.283,108.421 146.264 C 108.075 145.216,107.689 144.838,106.776 144.655 C 105.852 144.470,105.530 144.148,105.345 143.224 C 105.162 142.311,104.784 141.925,103.736 141.579 C 102.717 141.243,102.308 140.840,102.142 140.009 C 101.978 139.188,101.588 138.798,100.671 138.535 C 99.756 138.272,99.328 137.845,99.067 136.933 C 98.806 136.023,98.377 135.594,97.467 135.333 C 96.555 135.072,96.128 134.644,95.865 133.729 C 95.602 132.812,95.212 132.422,94.391 132.258 C 93.560 132.092,93.157 131.683,92.821 130.664 C 92.478 129.625,92.087 129.237,91.199 129.060 C 90.299 128.880,89.952 128.528,89.695 127.533 C 89.434 126.529,89.071 126.166,88.067 125.905 C 87.066 125.646,86.720 125.302,86.537 124.384 C 86.355 123.474,86.008 123.123,85.050 122.879 C 84.122 122.643,83.704 122.241,83.428 121.318 C 83.160 120.423,82.715 119.977,81.839 119.726 C 80.966 119.475,80.525 119.034,80.274 118.161 C 80.023 117.285,79.577 116.840,78.682 116.572 C 77.730 116.287,77.357 115.882,77.094 114.846 C 76.879 114.002,76.607 113.633,76.374 113.866 C 76.141 114.099,76.037 155.310,76.099 222.021 L 76.200 329.800 184.300 329.901 C 246.053 329.958,292.400 329.851,292.400 329.651 C 292.400 329.458,291.867 329.193,291.215 329.063 C 290.298 328.880,289.954 328.533,289.695 327.533 C 289.434 326.529,289.071 326.166,288.067 325.905 C 287.066 325.646,286.720 325.302,286.537 324.384 C 286.355 323.474,286.008 323.123,285.050 322.879 C 284.122 322.643,283.704 322.241,283.428 321.318 C 283.160 320.423,282.715 319.977,281.839 319.726 C 280.966 319.475,280.525 319.034,280.274 318.161 C 280.023 317.285,279.577 316.840,278.682 316.572 C 277.759 316.296,277.357 315.878,277.121 314.950 C 276.877 313.992,276.526 313.645,275.616 313.463 C 274.698 313.280,274.354 312.934,274.095 311.933 C 273.834 310.929,273.471 310.566,272.467 310.305 C 271.472 310.048,271.120 309.701,270.940 308.801 C 270.763 307.913,270.375 307.522,269.336 307.179 C 268.317 306.843,267.908 306.440,267.742 305.609 C 267.578 304.788,267.188 304.398,266.271 304.135 C 265.356 303.872,264.928 303.445,264.667 302.533 C 264.406 301.623,263.977 301.194,263.067 300.933 C 262.155 300.672,261.728 300.244,261.465 299.329 C 261.202 298.412,260.812 298.022,259.991 297.858 C 259.160 297.692,258.757 297.283,258.421 296.264 C 258.075 295.216,257.689 294.838,256.776 294.655 C 255.852 294.470,255.530 294.148,255.345 293.224 C 255.162 292.311,254.784 291.925,253.736 291.579 C 252.717 291.243,252.308 290.840,252.142 290.009 C 251.978 289.188,251.588 288.798,250.671 288.535 C 249.756 288.272,249.328 287.845,249.067 286.933 C 248.806 286.023,248.377 285.594,247.467 285.333 C 246.555 285.072,246.128 284.644,245.865 283.729 C 245.602 282.812,245.212 282.422,244.391 282.258 C 243.560 282.092,243.157 281.683,242.821 280.664 C 242.478 279.625,242.087 279.237,241.199 279.060 C 240.299 278.880,239.952 278.528,239.695 277.533 C 239.434 276.529,239.071 276.166,238.067 275.905 C 237.066 275.646,236.720 275.302,236.537 274.384 C 236.355 273.474,236.008 273.123,235.050 272.879 C 234.122 272.643,233.704 272.241,233.428 271.318 C 233.160 270.423,232.715 269.977,231.839 269.726 C 230.966 269.475,230.525 269.034,230.274 268.161 C 230.023 267.285,229.577 266.840,228.682 266.572 C 227.759 266.296,227.357 265.878,227.121 264.950 C 226.877 263.992,226.526 263.645,225.616 263.463 C 224.698 263.280,224.354 262.934,224.095 261.933 C 223.834 260.929,223.471 260.566,222.467 260.305 C 221.472 260.048,221.120 259.701,220.940 258.801 C 220.765 257.925,220.375 257.522,219.388 257.196 C 216.550 256.259,216.934 248.800,219.821 248.800 C 220.162 248.800,220.632 248.254,220.864 247.587 C 221.139 246.798,221.750 246.181,222.611 245.821 C 223.453 245.469,223.984 244.942,224.068 244.375 C 224.197 243.500,224.695 243.076,226.100 242.641 C 226.630 242.478,226.800 241.991,226.800 240.639 C 226.800 238.017,227.374 236.825,228.772 236.546 C 229.666 236.367,230.018 236.027,230.209 235.159 C 230.562 233.551,230.894 233.425,235.383 233.200 C 239.236 233.007,239.374 232.967,239.592 232.000 C 239.729 231.390,240.316 230.766,241.095 230.400 C 241.820 230.060,242.544 229.322,242.767 228.698 C 243.223 227.419,244.565 226.804,246.926 226.791 C 248.418 226.784,248.665 226.642,249.200 225.491 C 250.237 223.260,257.200 223.395,257.200 225.646 C 257.200 226.118,257.753 226.653,258.700 227.098 C 259.698 227.567,260.244 228.115,260.332 228.735 C 260.420 229.355,260.921 229.859,261.825 230.236 C 262.699 230.601,263.277 231.167,263.440 231.817 C 263.600 232.453,264.176 233.030,264.993 233.371 C 265.821 233.717,266.442 234.345,266.707 235.104 C 266.974 235.872,267.488 236.386,268.158 236.554 C 268.834 236.723,269.393 237.287,269.764 238.175 C 270.141 239.079,270.645 239.580,271.265 239.668 C 271.885 239.756,272.433 240.302,272.902 241.300 C 273.331 242.213,273.887 242.800,274.323 242.800 C 275.249 242.800,276.000 243.562,276.000 244.500 C 276.000 244.968,276.514 245.455,277.393 245.823 C 278.296 246.200,278.875 246.761,279.040 247.417 C 279.202 248.062,279.779 248.631,280.633 248.988 C 281.502 249.351,282.063 249.912,282.233 250.588 C 282.400 251.254,282.961 251.824,283.793 252.171 C 284.629 252.521,285.242 253.145,285.514 253.925 C 285.793 254.727,286.250 255.181,286.866 255.268 C 287.485 255.356,288.033 255.903,288.502 256.900 C 288.931 257.813,289.487 258.400,289.923 258.400 C 290.317 258.400,290.856 258.616,291.120 258.880 C 291.384 259.144,291.600 259.683,291.600 260.077 C 291.600 260.513,292.187 261.069,293.100 261.498 C 294.078 261.958,294.645 262.518,294.729 263.108 C 294.812 263.697,295.332 264.211,296.214 264.580 C 297.100 264.950,297.662 265.509,297.833 266.188 C 298.000 266.854,298.561 267.424,299.393 267.771 C 300.221 268.117,300.842 268.745,301.107 269.504 C 301.374 270.272,301.888 270.786,302.558 270.954 C 303.241 271.125,303.794 271.690,304.177 272.607 C 304.545 273.486,305.032 274.000,305.500 274.000 C 306.438 274.000,307.200 274.751,307.200 275.677 C 307.200 276.113,307.787 276.669,308.700 277.098 C 309.698 277.567,310.244 278.115,310.332 278.735 C 310.420 279.355,310.921 279.859,311.825 280.236 C 312.699 280.601,313.277 281.167,313.440 281.817 C 313.600 282.453,314.176 283.030,314.993 283.371 C 315.821 283.717,316.442 284.345,316.707 285.104 C 316.974 285.872,317.488 286.386,318.158 286.554 C 318.834 286.723,319.393 287.287,319.764 288.175 C 320.141 289.079,320.645 289.580,321.265 289.668 C 321.885 289.756,322.433 290.302,322.902 291.300 C 323.331 292.213,323.887 292.800,324.323 292.800 C 325.233 292.800,326.000 293.557,326.000 294.456 C 326.000 294.839,326.180 295.264,326.400 295.400 C 326.666 295.565,326.800 259.471,326.800 187.424 L 326.800 79.200 218.800 79.200 C 148.465 79.200,110.800 79.337,110.800 79.592 M247.931 249.227 C 247.640 250.061,247.047 250.672,246.175 251.036 C 245.326 251.391,244.812 251.909,244.729 252.493 C 244.647 253.066,244.121 253.611,243.300 253.972 C 241.682 254.684,241.659 255.032,243.208 255.342 C 244.148 255.530,244.470 255.848,244.655 256.776 C 244.838 257.689,245.216 258.075,246.264 258.421 C 247.283 258.757,247.692 259.160,247.858 259.991 C 248.022 260.812,248.412 261.202,249.329 261.465 C 250.244 261.728,250.672 262.155,250.933 263.067 C 251.194 263.977,251.623 264.406,252.533 264.667 C 253.445 264.928,253.872 265.356,254.135 266.271 C 254.398 267.188,254.788 267.578,255.609 267.742 C 256.440 267.908,256.843 268.317,257.179 269.336 C 257.522 270.375,257.913 270.763,258.801 270.940 C 259.701 271.120,260.048 271.472,260.305 272.467 C 260.566 273.471,260.929 273.834,261.933 274.095 C 262.934 274.354,263.280 274.698,263.463 275.616 C 263.645 276.526,263.992 276.877,264.950 277.121 C 265.878 277.357,266.296 277.759,266.572 278.682 C 266.840 279.577,267.285 280.023,268.161 280.274 C 269.034 280.525,269.475 280.966,269.726 281.839 C 269.977 282.715,270.423 283.160,271.318 283.428 C 272.241 283.704,272.643 284.122,272.879 285.050 C 273.123 286.008,273.474 286.355,274.384 286.537 C 275.302 286.720,275.646 287.066,275.905 288.067 C 276.166 289.071,276.529 289.434,277.533 289.695 C 278.528 289.952,278.880 290.299,279.060 291.199 C 279.237 292.087,279.625 292.478,280.664 292.821 C 281.683 293.157,282.092 293.560,282.258 294.391 C 282.422 295.212,282.812 295.602,283.729 295.865 C 284.644 296.128,285.072 296.555,285.333 297.467 C 285.594 298.377,286.023 298.806,286.933 299.067 C 287.845 299.328,288.272 299.756,288.535 300.671 C 288.798 301.588,289.188 301.978,290.009 302.142 C 290.840 302.308,291.243 302.717,291.579 303.736 C 291.925 304.784,292.311 305.162,293.224 305.345 C 294.148 305.530,294.470 305.852,294.655 306.776 C 294.838 307.689,295.216 308.075,296.264 308.421 C 297.283 308.757,297.692 309.160,297.858 309.991 C 298.022 310.812,298.412 311.202,299.329 311.465 C 300.244 311.728,300.672 312.155,300.933 313.067 C 301.194 313.977,301.623 314.406,302.533 314.667 C 303.445 314.928,303.872 315.356,304.135 316.271 C 304.398 317.188,304.788 317.578,305.609 317.742 C 306.440 317.908,306.843 318.317,307.179 319.336 C 307.522 320.375,307.913 320.763,308.801 320.940 C 309.701 321.120,310.048 321.472,310.305 322.467 C 310.566 323.471,310.929 323.834,311.933 324.095 C 312.934 324.354,313.280 324.698,313.463 325.616 C 313.645 326.526,313.992 326.877,314.950 327.121 C 315.889 327.359,316.295 327.758,316.583 328.719 L 316.965 330.000 321.883 330.000 L 326.800 330.000 326.791 325.100 L 326.783 320.200 325.500 319.600 C 324.780 319.264,324.125 318.603,324.008 318.097 C 323.891 317.588,323.195 316.891,322.412 316.497 C 321.569 316.074,320.934 315.413,320.797 314.815 C 320.654 314.193,320.207 313.746,319.585 313.603 C 318.987 313.466,318.326 312.831,317.903 311.988 C 317.509 311.205,316.812 310.509,316.303 310.392 C 315.798 310.275,315.135 309.619,314.800 308.905 C 314.457 308.174,313.722 307.456,313.085 307.229 C 312.426 306.994,311.806 306.374,311.571 305.715 C 311.344 305.078,310.626 304.343,309.895 304.000 C 309.181 303.665,308.525 303.002,308.408 302.497 C 308.291 301.988,307.595 301.291,306.812 300.897 C 305.958 300.469,305.335 299.815,305.195 299.200 C 305.055 298.585,304.643 298.153,304.125 298.078 C 303.128 297.933,302.140 296.911,301.939 295.818 C 301.858 295.375,301.363 294.936,300.798 294.806 C 300.186 294.666,299.530 294.039,299.103 293.188 C 298.709 292.405,298.012 291.709,297.503 291.592 C 296.998 291.475,296.335 290.819,296.000 290.105 C 295.657 289.374,294.922 288.656,294.285 288.429 C 293.626 288.194,293.006 287.574,292.771 286.915 C 292.544 286.278,291.826 285.543,291.095 285.200 C 290.381 284.865,289.725 284.202,289.608 283.697 C 289.491 283.188,288.795 282.491,288.012 282.097 C 287.169 281.674,286.534 281.013,286.397 280.415 C 286.254 279.793,285.807 279.346,285.185 279.203 C 284.587 279.066,283.926 278.431,283.503 277.588 C 283.109 276.805,282.412 276.109,281.903 275.992 C 281.398 275.875,280.735 275.219,280.400 274.505 C 280.057 273.774,279.322 273.056,278.685 272.829 C 278.026 272.594,277.406 271.974,277.171 271.315 C 276.944 270.678,276.226 269.943,275.495 269.600 C 274.781 269.265,274.125 268.602,274.008 268.097 C 273.891 267.588,273.195 266.891,272.412 266.497 C 271.569 266.074,270.934 265.413,270.797 264.815 C 270.654 264.193,270.207 263.746,269.585 263.603 C 268.987 263.466,268.326 262.831,267.903 261.988 C 267.509 261.205,266.812 260.509,266.303 260.392 C 265.798 260.275,265.135 259.619,264.800 258.905 C 264.457 258.174,263.722 257.456,263.085 257.229 C 262.426 256.994,261.806 256.374,261.571 255.715 C 261.344 255.078,260.626 254.343,259.895 254.000 C 259.181 253.665,258.525 253.002,258.408 252.497 C 258.291 251.988,257.595 251.291,256.812 250.897 C 255.959 250.469,255.335 249.814,255.195 249.200 C 254.976 248.245,254.817 248.195,251.668 248.084 L 248.370 247.967 247.931 249.227 " stroke="none" fill="#fcfcfc" fill-rule="evenodd"></path><path id="path2" d="M8.000 200.000 L 8.000 392.000 200.000 392.000 L 392.000 392.000 392.000 200.000 L 392.000 8.000 200.000 8.000 L 8.000 8.000 8.000 200.000 M77.400 35.200 C 78.502 36.418,77.297 37.600,74.953 37.600 L 73.229 37.600 55.415 55.415 L 37.600 73.229 37.600 74.953 C 37.600 77.297,36.418 78.502,35.200 77.400 C 34.064 76.372,33.933 36.379,35.062 35.131 C 36.141 33.939,76.318 34.004,77.400 35.200 M301.600 37.600 C 304.493 40.620,304.761 40.800,306.371 40.800 C 307.970 40.800,308.256 40.987,310.962 43.800 C 313.668 46.614,313.953 46.800,315.554 46.800 C 316.902 46.800,317.443 47.018,318.130 47.840 C 318.609 48.413,319.346 49.178,319.768 49.540 C 320.191 49.903,320.952 50.650,321.459 51.200 C 321.967 51.750,322.584 52.380,322.831 52.600 C 323.077 52.820,323.801 53.540,324.438 54.200 C 325.779 55.588,325.474 55.290,328.743 58.412 C 333.429 62.887,347.842 62.400,210.732 62.400 L 91.588 62.400 90.834 61.160 C 90.419 60.478,89.538 59.590,88.876 59.188 C 88.213 58.785,87.562 58.112,87.429 57.692 C 87.296 57.272,86.728 56.683,86.168 56.383 C 85.608 56.083,84.852 55.334,84.488 54.719 C 84.125 54.103,83.713 53.600,83.572 53.600 C 83.432 53.600,82.821 53.141,82.215 52.579 C 80.687 51.163,81.633 50.000,84.313 50.000 C 86.067 50.000,86.188 49.911,90.592 45.400 C 94.931 40.955,95.139 40.800,96.787 40.800 C 98.266 40.800,98.686 40.588,99.955 39.200 C 101.220 37.816,101.646 37.600,103.109 37.600 C 104.792 37.600,105.213 37.340,106.896 35.260 L 107.592 34.400 203.063 34.400 L 298.535 34.400 301.600 37.600 M368.069 35.062 C 369.261 36.141,369.196 76.318,368.000 77.400 C 366.728 78.551,365.600 77.298,365.600 74.732 C 365.600 72.987,365.473 72.711,364.360 72.034 C 363.678 71.619,362.790 70.738,362.388 70.076 C 361.985 69.413,361.312 68.762,360.892 68.629 C 360.472 68.496,359.883 67.928,359.583 67.368 C 359.283 66.808,358.548 66.060,357.950 65.707 C 357.352 65.354,356.632 64.634,356.350 64.107 C 356.068 63.580,355.348 62.860,354.750 62.507 C 354.152 62.154,353.432 61.434,353.150 60.907 C 352.868 60.380,352.150 59.661,351.553 59.309 C 350.956 58.956,350.275 58.245,350.040 57.728 C 349.804 57.211,349.146 56.576,348.576 56.316 C 348.006 56.057,347.275 55.331,346.951 54.705 C 346.627 54.078,345.907 53.358,345.351 53.105 C 344.795 52.851,344.075 52.131,343.751 51.505 C 343.427 50.878,342.750 50.178,342.247 49.949 C 341.744 49.719,341.044 49.044,340.691 48.447 C 340.339 47.850,339.620 47.132,339.093 46.850 C 338.566 46.568,337.846 45.848,337.493 45.250 C 337.140 44.652,336.409 43.926,335.869 43.637 C 335.330 43.348,334.652 42.670,334.363 42.131 C 334.074 41.591,333.350 40.861,332.753 40.509 C 332.156 40.156,331.481 39.456,331.251 38.953 C 331.022 38.450,330.287 37.755,329.617 37.409 C 328.355 36.756,328.050 35.710,328.880 34.880 C 329.727 34.033,367.124 34.207,368.069 35.062 M346.717 76.385 C 347.092 77.037,347.815 77.794,348.324 78.066 C 348.834 78.339,349.540 79.052,349.893 79.650 C 350.246 80.248,350.966 80.968,351.493 81.250 C 352.020 81.532,352.748 82.266,353.112 82.881 C 353.475 83.497,353.887 84.000,354.028 84.000 C 355.041 84.000,356.400 86.096,356.400 87.657 C 356.400 89.244,356.592 89.538,359.400 92.238 C 362.213 94.944,362.400 95.230,362.400 96.829 C 362.400 98.439,362.580 98.707,365.600 101.600 L 368.800 104.665 368.800 201.600 L 368.800 298.535 365.600 301.600 C 362.488 304.581,362.400 304.717,362.400 306.546 C 362.400 308.267,362.282 308.496,361.018 309.243 C 360.257 309.691,359.524 310.410,359.387 310.840 C 359.251 311.270,358.658 311.927,358.070 312.301 C 356.606 313.232,356.413 313.575,356.406 315.267 C 356.398 317.297,356.084 317.936,354.758 318.622 C 354.129 318.947,353.336 319.750,352.996 320.407 C 352.207 321.933,351.048 321.943,350.155 320.431 C 349.775 319.789,349.034 319.032,348.507 318.750 C 347.980 318.468,347.252 317.734,346.888 317.119 C 346.525 316.503,346.113 316.000,345.972 316.000 C 345.832 316.000,345.241 315.559,344.658 315.019 L 343.600 314.038 343.600 195.351 C 343.600 85.472,343.649 76.609,344.262 75.931 C 345.206 74.889,345.936 75.024,346.717 76.385 M90.086 81.787 C 92.349 84.090,94.380 86.144,94.600 86.352 C 95.132 86.854,97.586 89.309,97.991 89.744 C 98.409 90.193,109.914 101.699,110.379 102.132 C 110.840 102.563,113.021 104.743,113.523 105.277 C 113.737 105.503,116.522 108.298,119.712 111.488 C 122.902 114.678,125.666 117.449,125.856 117.645 C 126.045 117.842,126.740 118.524,127.400 119.162 C 128.901 120.611,129.389 121.099,130.838 122.600 C 131.476 123.260,132.133 123.931,132.299 124.091 C 132.464 124.252,135.165 126.909,138.300 129.997 L 144.000 135.611 144.000 137.590 C 144.000 138.929,143.792 139.735,143.355 140.084 C 143.001 140.368,142.175 141.140,141.520 141.800 C 140.865 142.460,140.144 143.180,139.917 143.400 C 139.691 143.620,138.774 144.565,137.881 145.500 C 135.980 147.489,133.036 147.943,131.755 146.445 C 131.107 145.688,129.447 143.963,128.763 143.335 C 128.562 143.151,127.876 142.460,127.238 141.800 C 125.789 140.299,125.301 139.811,123.800 138.362 C 123.140 137.724,122.449 137.038,122.265 136.837 C 122.080 136.635,121.450 136.001,120.865 135.426 C 120.279 134.852,119.555 134.136,119.255 133.836 C 118.955 133.536,118.259 132.841,117.709 132.291 C 117.159 131.741,116.439 131.021,116.109 130.691 C 115.779 130.361,115.093 129.665,114.584 129.145 C 114.075 128.625,113.465 128.020,113.228 127.800 C 112.991 127.580,112.276 126.860,111.638 126.200 C 110.189 124.699,109.701 124.211,108.200 122.762 C 107.540 122.124,106.878 121.467,106.729 121.301 C 106.580 121.136,105.975 120.525,105.384 119.945 C 104.793 119.365,104.039 118.621,103.709 118.291 C 103.379 117.961,102.659 117.241,102.109 116.691 C 101.559 116.141,100.839 115.421,100.509 115.091 C 100.179 114.761,99.464 114.036,98.919 113.481 C 98.375 112.925,97.765 112.320,97.563 112.135 C 97.362 111.951,96.676 111.260,96.038 110.600 C 95.401 109.940,94.697 109.220,94.475 109.000 C 93.952 108.482,91.518 106.048,91.000 105.525 C 90.780 105.303,90.060 104.599,89.400 103.962 C 88.740 103.324,88.049 102.638,87.865 102.437 C 87.680 102.235,87.075 101.625,86.519 101.081 C 85.964 100.536,85.264 99.845,84.964 99.545 C 84.664 99.245,83.968 98.550,83.418 98.000 C 82.868 97.450,82.124 96.705,81.764 96.345 C 81.404 95.985,80.664 95.236,80.119 94.681 C 79.575 94.125,78.965 93.520,78.763 93.335 C 78.562 93.151,77.880 92.460,77.248 91.800 C 76.615 91.140,75.805 90.368,75.449 90.084 C 74.908 89.655,74.800 88.673,74.800 84.207 C 74.800 77.420,74.624 77.600,81.275 77.600 L 85.972 77.600 90.086 81.787 M326.926 78.060 C 327.407 78.313,327.932 78.718,328.094 78.960 C 328.256 79.202,328.391 128.076,328.394 187.569 C 328.400 303.129,328.490 297.200,326.729 297.200 C 326.539 297.200,310.188 281.000,290.396 261.200 C 249.620 220.409,252.591 222.895,249.863 227.300 C 249.272 228.254,248.925 228.400,247.253 228.400 C 245.882 228.400,245.130 228.615,244.652 229.142 C 243.967 229.899,244.131 231.200,244.911 231.200 C 246.656 231.200,247.546 235.313,246.138 236.869 C 244.692 238.467,243.600 237.130,243.600 233.761 C 243.600 231.225,242.735 231.034,240.808 233.142 L 239.292 234.800 235.926 234.800 C 231.445 234.800,230.164 236.079,232.915 237.806 C 234.523 238.815,234.898 240.403,233.528 240.394 C 232.370 240.386,231.849 240.046,231.246 238.900 C 230.208 236.930,228.400 238.088,228.400 240.722 C 228.400 242.441,228.286 242.597,223.800 247.008 C 218.505 252.216,217.676 254.363,220.365 255.906 C 221.006 256.274,221.833 257.087,222.203 257.713 C 222.573 258.339,223.289 259.040,223.794 259.270 C 224.299 259.500,224.900 260.101,225.130 260.606 C 225.360 261.111,226.085 261.841,226.740 262.228 C 227.396 262.615,228.119 263.344,228.349 263.847 C 228.578 264.350,229.278 265.027,229.905 265.351 C 230.531 265.675,231.251 266.395,231.505 266.951 C 231.758 267.507,232.478 268.227,233.105 268.551 C 233.731 268.875,234.457 269.606,234.716 270.176 C 234.976 270.746,235.611 271.404,236.128 271.640 C 236.645 271.875,237.385 272.604,237.772 273.260 C 238.159 273.915,238.889 274.640,239.394 274.870 C 239.899 275.100,240.500 275.701,240.730 276.206 C 240.960 276.711,241.685 277.441,242.340 277.828 C 242.996 278.215,243.719 278.944,243.949 279.447 C 244.178 279.950,244.878 280.627,245.505 280.951 C 246.131 281.275,246.851 281.995,247.105 282.551 C 247.358 283.107,248.078 283.827,248.705 284.151 C 249.331 284.475,250.057 285.206,250.316 285.776 C 250.576 286.346,251.211 287.004,251.728 287.240 C 252.245 287.475,252.985 288.204,253.372 288.860 C 253.759 289.515,254.489 290.240,254.994 290.470 C 255.499 290.700,256.112 291.327,256.356 291.863 C 256.600 292.399,257.330 293.142,257.979 293.514 C 258.628 293.886,259.336 294.581,259.553 295.058 C 259.771 295.534,260.485 296.241,261.140 296.628 C 261.796 297.015,262.525 297.755,262.760 298.272 C 262.996 298.789,263.654 299.424,264.224 299.684 C 264.794 299.943,265.525 300.669,265.849 301.295 C 266.173 301.922,266.893 302.642,267.449 302.895 C 268.005 303.149,268.725 303.869,269.049 304.495 C 269.373 305.122,270.050 305.822,270.553 306.051 C 271.056 306.281,271.785 307.004,272.172 307.660 C 272.559 308.315,273.289 309.040,273.794 309.270 C 274.299 309.500,274.900 310.101,275.130 310.606 C 275.360 311.111,276.085 311.841,276.740 312.228 C 277.396 312.615,278.125 313.355,278.360 313.872 C 278.596 314.389,279.254 315.024,279.824 315.284 C 280.394 315.543,281.125 316.269,281.449 316.895 C 281.773 317.522,282.493 318.242,283.049 318.495 C 283.605 318.749,284.325 319.469,284.649 320.095 C 284.973 320.722,285.650 321.422,286.153 321.651 C 286.656 321.881,287.385 322.604,287.772 323.260 C 288.159 323.915,288.889 324.640,289.394 324.870 C 289.899 325.100,290.500 325.701,290.730 326.206 C 290.960 326.711,291.700 327.450,292.375 327.849 C 293.924 328.764,294.281 329.827,293.374 330.829 C 292.362 331.947,76.766 332.055,75.531 330.938 C 74.826 330.300,74.800 326.381,74.800 221.761 L 74.800 113.245 75.650 112.650 C 76.653 111.948,77.696 112.414,78.354 113.859 C 78.580 114.355,79.278 115.027,79.905 115.351 C 80.531 115.675,81.251 116.395,81.505 116.951 C 81.758 117.507,82.478 118.227,83.105 118.551 C 83.731 118.875,84.457 119.606,84.716 120.176 C 84.976 120.746,85.611 121.404,86.128 121.640 C 86.645 121.875,87.385 122.604,87.772 123.260 C 88.159 123.915,88.889 124.640,89.394 124.870 C 89.899 125.100,90.500 125.701,90.730 126.206 C 90.960 126.711,91.685 127.441,92.340 127.828 C 92.996 128.215,93.719 128.944,93.949 129.447 C 94.178 129.950,94.878 130.627,95.505 130.951 C 96.131 131.275,96.851 131.995,97.105 132.551 C 97.358 133.107,98.078 133.827,98.705 134.151 C 99.331 134.475,100.057 135.206,100.316 135.776 C 100.576 136.346,101.211 137.004,101.728 137.240 C 102.245 137.475,102.985 138.204,103.372 138.860 C 103.759 139.515,104.489 140.240,104.994 140.470 C 105.499 140.700,106.112 141.327,106.356 141.863 C 106.600 142.399,107.330 143.142,107.979 143.514 C 108.628 143.886,109.336 144.581,109.553 145.058 C 109.771 145.534,110.485 146.241,111.140 146.628 C 111.796 147.015,112.519 147.744,112.749 148.247 C 112.978 148.750,113.678 149.427,114.305 149.751 C 114.931 150.075,115.657 150.806,115.916 151.376 C 116.176 151.946,116.854 152.624,117.424 152.884 C 117.994 153.143,118.725 153.869,119.049 154.495 C 119.373 155.122,120.050 155.822,120.553 156.051 C 121.056 156.281,121.785 157.004,122.172 157.660 C 122.559 158.315,123.266 159.029,123.742 159.247 C 124.219 159.464,124.914 160.172,125.286 160.821 C 125.884 161.863,126.181 162.000,127.843 162.000 C 129.523 162.000,129.880 162.170,131.200 163.600 L 132.677 165.200 137.523 165.200 C 141.476 165.200,142.463 165.083,142.884 164.562 C 144.931 162.029,144.995 162.000,148.388 162.000 L 151.612 162.000 158.406 155.206 L 165.200 148.412 165.200 142.201 L 165.200 135.990 137.200 108.006 C 108.768 79.589,108.523 79.320,110.089 78.223 C 111.243 77.415,325.395 77.254,326.926 78.060 M55.420 91.369 L 59.201 95.138 59.101 211.225 C 59.004 322.824,58.972 327.330,58.275 327.756 C 57.680 328.120,57.411 328.020,56.777 327.200 C 55.942 326.118,55.969 326.147,54.200 324.438 C 53.540 323.801,52.820 323.077,52.600 322.831 C 52.380 322.584,51.750 321.967,51.200 321.459 C 50.650 320.952,49.903 320.191,49.540 319.768 C 49.178 319.346,48.413 318.609,47.840 318.130 C 47.018 317.443,46.800 316.902,46.800 315.554 C 46.800 313.953,46.614 313.668,43.800 310.962 C 40.987 308.256,40.800 307.970,40.800 306.371 C 40.800 304.761,40.620 304.493,37.600 301.600 L 34.400 298.535 34.400 203.063 L 34.400 107.592 35.260 106.896 C 37.340 105.213,37.600 104.792,37.600 103.109 C 37.600 101.646,37.816 101.220,39.200 99.955 C 40.580 98.694,40.800 98.261,40.800 96.815 C 40.800 95.237,41.017 94.919,44.500 91.395 C 49.694 86.141,50.174 86.140,55.420 91.369 M149.573 144.750 C 150.247 146.009,148.680 147.178,147.613 146.212 C 146.671 145.359,147.154 144.000,148.400 144.000 C 148.825 144.000,149.352 144.337,149.573 144.750 M155.625 144.623 C 156.458 145.376,156.190 146.800,155.215 146.800 C 154.068 146.800,152.987 145.339,153.594 144.608 C 154.234 143.836,154.760 143.840,155.625 144.623 M158.469 147.462 C 159.367 148.275,159.379 148.564,158.552 149.390 C 157.791 150.151,156.400 149.256,156.400 148.005 C 156.400 146.670,157.325 146.427,158.469 147.462 M146.069 150.662 C 146.565 151.112,146.800 151.887,146.800 153.078 C 146.800 154.619,147.000 155.016,148.441 156.347 C 150.484 158.233,149.963 159.200,146.903 159.200 C 144.407 159.200,143.600 158.415,143.600 155.985 C 143.600 154.295,143.452 153.982,142.200 153.027 C 141.430 152.440,140.800 151.801,140.800 151.608 C 140.800 150.091,144.670 149.396,146.069 150.662 M243.600 239.027 C 243.600 240.335,243.512 240.443,242.540 240.327 C 240.322 240.062,240.420 237.600,242.649 237.600 C 243.473 237.600,243.600 237.791,243.600 239.027 M236.869 241.462 C 238.538 242.972,237.329 247.112,235.330 246.731 C 234.093 246.495,234.018 240.800,235.251 240.800 C 235.738 240.800,236.466 241.098,236.869 241.462 M246.379 241.374 C 246.921 242.027,246.312 243.600,245.517 243.600 C 244.673 243.600,243.683 242.369,243.890 241.577 C 244.132 240.652,245.675 240.527,246.379 241.374 M257.351 249.042 C 258.762 250.495,260.101 251.859,260.326 252.074 C 260.907 252.628,263.209 254.933,263.591 255.344 C 263.767 255.534,266.496 258.273,269.656 261.433 C 272.815 264.592,275.580 267.363,275.800 267.590 C 276.020 267.817,276.740 268.524,277.400 269.162 C 278.060 269.799,278.843 270.564,279.140 270.860 C 279.436 271.157,280.201 271.940,280.838 272.600 C 281.476 273.260,282.158 273.955,282.355 274.144 C 282.551 274.334,285.322 277.098,288.512 280.288 C 291.702 283.478,294.497 286.263,294.723 286.477 C 294.950 286.690,295.675 287.405,296.335 288.065 C 296.995 288.725,297.710 289.450,297.923 289.677 C 298.137 289.903,300.922 292.698,304.112 295.888 C 307.302 299.078,310.097 301.863,310.323 302.077 C 310.855 302.578,312.851 304.573,313.512 305.265 C 313.793 305.559,316.609 308.354,319.770 311.475 C 322.931 314.597,325.581 317.303,325.658 317.490 C 325.736 317.676,326.385 318.240,327.100 318.742 L 328.400 319.654 328.400 325.005 C 328.400 331.794,328.595 331.600,321.787 331.600 C 316.666 331.600,316.291 331.484,315.083 329.530 C 314.719 328.942,314.095 328.357,313.697 328.231 C 313.299 328.104,312.647 327.449,312.249 326.775 C 311.850 326.100,311.111 325.360,310.606 325.130 C 310.101 324.900,309.500 324.299,309.270 323.794 C 309.040 323.289,308.315 322.559,307.660 322.172 C 307.004 321.785,306.275 321.045,306.040 320.528 C 305.804 320.011,305.146 319.376,304.576 319.116 C 304.006 318.857,303.275 318.131,302.951 317.505 C 302.627 316.878,301.907 316.158,301.351 315.905 C 300.795 315.651,300.075 314.931,299.751 314.305 C 299.427 313.678,298.750 312.978,298.247 312.749 C 297.744 312.519,297.015 311.796,296.628 311.140 C 296.241 310.485,295.511 309.760,295.006 309.530 C 294.501 309.300,293.888 308.673,293.644 308.137 C 293.400 307.601,292.670 306.858,292.021 306.486 C 291.372 306.114,290.664 305.419,290.447 304.942 C 290.229 304.466,289.515 303.759,288.860 303.372 C 288.204 302.985,287.481 302.256,287.251 301.753 C 287.022 301.250,286.322 300.573,285.695 300.249 C 285.069 299.925,284.349 299.205,284.095 298.649 C 283.842 298.093,283.122 297.373,282.495 297.049 C 281.869 296.725,281.143 295.994,280.884 295.424 C 280.624 294.854,279.989 294.196,279.472 293.960 C 278.955 293.725,278.215 292.996,277.828 292.340 C 277.441 291.685,276.711 290.960,276.206 290.730 C 275.701 290.500,275.100 289.899,274.870 289.394 C 274.640 288.889,273.915 288.159,273.260 287.772 C 272.604 287.385,271.881 286.656,271.651 286.153 C 271.422 285.650,270.722 284.973,270.095 284.649 C 269.469 284.325,268.743 283.594,268.484 283.024 C 268.224 282.454,267.546 281.776,266.976 281.516 C 266.406 281.257,265.675 280.531,265.351 279.905 C 265.027 279.278,264.350 278.578,263.847 278.349 C 263.344 278.119,262.615 277.396,262.228 276.740 C 261.841 276.085,261.111 275.360,260.606 275.130 C 260.101 274.900,259.500 274.299,259.270 273.794 C 259.040 273.289,258.315 272.559,257.660 272.172 C 257.004 271.785,256.275 271.045,256.040 270.528 C 255.804 270.011,255.146 269.376,254.576 269.116 C 254.006 268.857,253.275 268.131,252.951 267.505 C 252.627 266.878,251.907 266.158,251.351 265.905 C 250.795 265.651,250.075 264.931,249.751 264.305 C 249.427 263.678,248.750 262.978,248.247 262.749 C 247.744 262.519,247.015 261.796,246.628 261.140 C 246.241 260.485,245.534 259.771,245.058 259.553 C 244.581 259.336,243.886 258.628,243.514 257.979 C 243.142 257.330,242.382 256.592,241.826 256.339 C 239.758 255.397,240.083 254.640,244.388 250.393 L 248.434 246.400 251.610 246.400 L 254.785 246.400 257.351 249.042 M234.321 249.334 C 234.499 252.777,232.814 254.102,231.368 251.654 C 230.996 251.024,230.176 250.204,229.546 249.832 C 227.105 248.390,228.482 246.747,232.000 246.903 L 234.200 247.000 234.321 249.334 M37.409 329.617 C 37.755 330.287,38.450 331.022,38.953 331.251 C 39.456 331.481,40.156 332.156,40.509 332.753 C 40.861 333.350,41.591 334.074,42.131 334.363 C 42.670 334.652,43.348 335.330,43.637 335.869 C 43.926 336.409,44.652 337.140,45.250 337.493 C 45.848 337.846,46.568 338.566,46.850 339.093 C 47.132 339.620,47.850 340.339,48.447 340.691 C 49.044 341.044,49.725 341.755,49.960 342.272 C 50.196 342.789,50.854 343.424,51.424 343.684 C 51.994 343.943,52.725 344.669,53.049 345.295 C 53.373 345.922,54.093 346.642,54.649 346.895 C 55.205 347.149,55.925 347.869,56.249 348.495 C 56.573 349.122,57.260 349.827,57.775 350.062 C 58.291 350.296,58.948 350.930,59.237 351.469 C 59.526 352.009,60.252 352.740,60.850 353.093 C 61.448 353.446,62.168 354.166,62.450 354.693 C 62.732 355.220,63.441 355.934,64.027 356.280 C 64.612 356.625,65.375 357.388,65.720 357.973 C 66.066 358.559,66.791 359.274,67.331 359.563 C 67.870 359.852,68.509 360.521,68.750 361.050 C 68.991 361.579,69.654 362.224,70.224 362.484 C 70.794 362.743,71.525 363.469,71.849 364.095 C 72.173 364.722,72.870 365.431,73.397 365.672 C 74.682 366.257,74.964 367.155,74.148 368.058 C 73.167 369.141,36.324 369.217,35.131 368.138 C 34.214 367.308,33.974 329.786,34.880 328.880 C 35.710 328.050,36.756 328.355,37.409 329.617 M368.386 329.174 C 369.280 330.845,368.920 367.080,368.000 368.000 C 367.080 368.920,330.845 369.280,329.174 368.386 C 328.043 367.781,328.228 366.547,329.569 365.755 C 330.211 365.375,330.968 364.634,331.250 364.107 C 331.532 363.580,332.241 362.866,332.827 362.520 C 333.412 362.175,334.190 361.387,334.554 360.770 C 334.918 360.153,335.575 359.535,336.013 359.396 C 336.451 359.257,337.085 358.608,337.424 357.954 C 337.762 357.300,338.493 356.558,339.049 356.305 C 339.605 356.051,340.320 355.342,340.637 354.729 C 340.954 354.115,341.750 353.336,342.407 352.996 C 343.063 352.657,343.600 352.204,343.600 351.990 C 343.600 351.007,345.254 350.000,346.869 350.000 C 349.128 350.000,350.000 349.147,350.000 346.938 C 350.000 345.254,350.986 343.600,351.990 343.600 C 352.204 343.600,352.663 343.052,353.009 342.383 C 353.355 341.713,354.093 340.958,354.649 340.705 C 355.205 340.451,355.920 339.742,356.237 339.129 C 356.554 338.515,357.338 337.742,357.978 337.411 C 358.619 337.080,359.257 336.451,359.396 336.013 C 359.535 335.575,360.164 334.912,360.793 334.541 C 361.422 334.169,362.168 333.434,362.450 332.907 C 362.732 332.380,363.441 331.666,364.027 331.320 C 364.612 330.975,365.396 330.176,365.768 329.546 C 366.548 328.226,367.784 328.050,368.386 329.174 M314.829 350.790 L 318.820 354.780 318.010 355.590 C 317.454 356.146,316.668 356.402,315.500 356.406 C 313.568 356.413,313.249 356.579,312.301 358.070 C 311.927 358.658,311.270 359.251,310.840 359.387 C 310.410 359.524,309.691 360.257,309.243 361.018 C 308.496 362.282,308.267 362.400,306.546 362.400 C 304.717 362.400,304.581 362.488,301.600 365.600 L 298.535 368.800 201.600 368.800 L 104.665 368.800 101.600 365.600 C 98.707 362.580,98.439 362.400,96.829 362.400 C 95.230 362.400,94.944 362.213,92.238 359.400 C 89.538 356.592,89.244 356.400,87.657 356.400 C 86.083 356.400,84.000 355.038,84.000 354.009 C 84.000 353.858,83.539 353.488,82.975 353.186 C 82.411 352.885,81.666 352.159,81.320 351.573 C 80.975 350.988,80.176 350.204,79.546 349.832 C 78.257 349.070,78.047 347.845,79.100 347.232 C 79.571 346.958,117.596 346.820,195.320 346.812 L 310.839 346.800 314.829 350.790 " stroke="none" fill="#040404" fill-rule="evenodd"></path></g></svg>